<svg width="24" height="25" viewBox="0 0 24 25" fill="none" xmlns="http://www.w3.org/2000/svg">
<path d="M12.0264 24.5H11.9736C5.37142 24.5 0 19.1286 0 12.5264V12.4736C0 5.87144 5.37142 0.5 11.9736 0.5H12.0264C18.6286 0.5 24 5.87144 24 12.4736V12.5264C24 19.1286 18.6286 24.5 12.0264 24.5ZM11.9736 1.31238C5.81904 1.31238 0.812375 6.31906 0.812375 12.4736V12.5264C0.812375 18.681 5.81904 23.6876 11.9736 23.6876H12.0264C18.181 23.6876 23.1876 18.681 23.1876 12.5264V12.4736C23.1876 6.31906 18.181 1.31238 12.0264 1.31238H11.9736Z" fill="black"/>
<path d="M13.6145 9.809V12.3347H16.7389L16.2442 15.7369H13.6145V23.5755C13.0873 23.6486 12.5478 23.6868 12.0003 23.6868C11.3683 23.6868 10.7476 23.6364 10.1432 23.539V15.7369H7.26172V12.3347H10.1432V9.2444C10.1432 7.32719 11.6973 5.77231 13.6153 5.77231V5.77393C13.621 5.77393 13.6259 5.77231 13.6316 5.77231H16.7397V8.71473H14.7088C14.1052 8.71473 13.6153 9.20459 13.6153 9.80818L13.6145 9.809Z" fill="black"/>
</svg>
