<svg width="24" height="25" viewBox="0 0 24 25" fill="none" xmlns="http://www.w3.org/2000/svg">
<path d="M12.0264 24.5H11.9736C5.37143 24.5 0 19.1286 0 12.5264V12.4736C0 5.87142 5.37143 0.5 11.9736 0.5H12.0264C18.6286 0.5 24 5.87142 24 12.4736V12.5264C24 19.1286 18.6286 24.5 12.0264 24.5ZM11.9736 1.31238C5.81904 1.31238 0.812375 6.31904 0.812375 12.4736V12.5264C0.812375 18.681 5.81904 23.6876 11.9736 23.6876H12.0264C18.181 23.6876 23.1876 18.681 23.1876 12.5264V12.4736C23.1876 6.31904 18.181 1.31238 12.0264 1.31238H11.9736Z" fill="black"/>
<path d="M17.6051 9.29478V11.4841C17.2225 11.4468 16.7253 11.3598 16.1753 11.1584C15.4572 10.8952 14.9226 10.5353 14.5725 10.2566V14.6816L14.5636 14.6678C14.5693 14.7556 14.5725 14.8449 14.5725 14.9351C14.5725 17.1326 12.7845 18.9214 10.5862 18.9214C8.38789 18.9214 6.59985 17.1326 6.59985 14.9351C6.59985 12.7376 8.38789 10.948 10.5862 10.948C10.8015 10.948 11.0127 10.965 11.219 10.9983V13.156C11.0208 13.0853 10.808 13.0471 10.5862 13.0471C9.54553 13.0471 8.69822 13.8936 8.69822 14.9351C8.69822 15.9766 9.54553 16.8231 10.5862 16.8231C11.6268 16.8231 12.4741 15.9757 12.4741 14.9351C12.4741 14.8961 12.4733 14.8571 12.4709 14.8181V6.21912H14.6586C14.6667 6.40434 14.6741 6.59119 14.6822 6.77641C14.6968 7.14117 14.8268 7.49131 15.0534 7.77808C15.3191 8.11522 15.7115 8.50677 16.2622 8.81953C16.7781 9.11117 17.2623 9.2371 17.6051 9.2964V9.29478Z" fill="black"/>
</svg>
