<svg width="24" height="25" viewBox="0 0 24 25" fill="none" xmlns="http://www.w3.org/2000/svg">
<path d="M12 24.5C5.38294 24.5 0 19.1171 0 12.5C0 5.88294 5.38294 0.5 12 0.5C18.6171 0.5 24 5.88294 24 12.5C24 19.1171 18.6171 24.5 12 24.5ZM12 1.31461C5.83261 1.31461 0.814609 6.3326 0.814609 12.5C0.814609 18.6674 5.83261 23.6854 12 23.6854C18.1674 23.6854 23.1854 18.6674 23.1854 12.5C23.1854 6.3326 18.1674 1.31461 12 1.31461Z" fill="black"/>
<path d="M19.2998 10.0977C19.2085 9.21713 19.0122 8.24367 18.2897 7.7321C17.73 7.33538 16.9944 7.32072 16.3077 7.32153C14.8561 7.32234 13.4036 7.32398 11.952 7.32479C10.5558 7.32642 9.15953 7.32724 7.76329 7.32887C7.18003 7.32968 6.61306 7.28407 6.07134 7.5366C5.6062 7.75328 5.24207 8.16546 5.02294 8.62409C4.71909 9.26193 4.65555 9.98449 4.6189 10.6899C4.55128 11.9746 4.55862 13.2625 4.63926 14.5463C4.69873 15.4831 4.84943 16.5185 5.57362 17.1156C6.21553 17.6442 7.12137 17.6703 7.9539 17.6711C10.5965 17.6736 13.2399 17.676 15.8833 17.6777C16.2222 17.6785 16.5757 17.672 16.9211 17.6345C17.6005 17.5612 18.2481 17.3665 18.6847 16.863C19.1254 16.3555 19.2387 15.6493 19.3055 14.9805C19.4684 13.3578 19.4668 11.7196 19.2998 10.0977ZM10.4238 14.7744V10.2248L14.3633 12.4992L10.4238 14.7744Z" fill="black"/>
</svg>
