<svg width="24" height="25" viewBox="0 0 24 25" fill="none" xmlns="http://www.w3.org/2000/svg">
<path d="M12.0264 24.5H11.9736C5.37143 24.5 0 19.1286 0 12.5264V12.4736C0 5.87142 5.37143 0.5 11.9736 0.5H12.0264C18.6286 0.5 24 5.87142 24 12.4736V12.5264C24 19.1286 18.6286 24.5 12.0264 24.5ZM11.9736 1.31238C5.81904 1.31238 0.812375 6.31904 0.812375 12.4736V12.5264C0.812375 18.681 5.81904 23.6876 11.9736 23.6876H12.0264C18.181 23.6876 23.1876 18.681 23.1876 12.5264V12.4736C23.1876 6.31904 18.181 1.31238 12.0264 1.31238H11.9736Z" fill="black"/>
<path d="M15.5878 5.62366H8.41288C6.43068 5.62366 4.81812 7.23622 4.81812 9.21842V15.7824C4.81812 17.7646 6.43068 19.3772 8.41288 19.3772H15.5878C17.57 19.3772 19.1825 17.7646 19.1825 15.7824V9.21842C19.1825 7.23622 17.57 5.62366 15.5878 5.62366ZM6.08623 9.21842C6.08623 7.93568 7.13014 6.89176 8.41288 6.89176H15.5878C16.8705 6.89176 17.9144 7.93568 17.9144 9.21842V15.7824C17.9144 17.0651 16.8705 18.109 15.5878 18.109H8.41288C7.13014 18.109 6.08623 17.0651 6.08623 15.7824V9.21842Z" fill="black"/>
<path d="M12.0005 15.8433C13.8438 15.8433 15.3442 14.3437 15.3442 12.4996C15.3442 10.6555 13.8446 9.15588 12.0005 9.15588C10.1564 9.15588 8.65674 10.6555 8.65674 12.4996C8.65674 14.3437 10.1564 15.8433 12.0005 15.8433ZM12.0005 10.4248C13.1451 10.4248 14.0761 11.3558 14.0761 12.5004C14.0761 13.6451 13.1451 14.5761 12.0005 14.5761C10.8558 14.5761 9.92486 13.6451 9.92486 12.5004C9.92486 11.3558 10.8558 10.4248 12.0005 10.4248Z" fill="black"/>
<path d="M15.6536 9.6961C16.15 9.6961 16.5545 9.29236 16.5545 8.79519C16.5545 8.29801 16.1508 7.89426 15.6536 7.89426C15.1564 7.89426 14.7527 8.29801 14.7527 8.79519C14.7527 9.29236 15.1564 9.6961 15.6536 9.6961Z" fill="black"/>
</svg>
