<svg width="24" height="25" viewBox="0 0 24 25" fill="none" xmlns="http://www.w3.org/2000/svg">
<path d="M12.0264 24.5H11.9736C5.37143 24.5 0 19.1286 0 12.5264V12.4736C0 5.87142 5.37143 0.5 11.9736 0.5H12.0264C18.6286 0.5 24 5.87142 24 12.4736V12.5264C24 19.1286 18.6286 24.5 12.0264 24.5ZM11.9736 1.31238C5.81904 1.31238 0.812375 6.31904 0.812375 12.4736V12.5264C0.812375 18.681 5.81904 23.6876 11.9736 23.6876H12.0264C18.181 23.6876 23.1876 18.681 23.1876 12.5264V12.4736C23.1876 6.31904 18.181 1.31238 12.0264 1.31238H11.9736Z" fill="black"/>
<path d="M14.2605 15.8913C11.2929 15.8913 8.8785 13.4761 8.87769 10.5085C8.8785 9.75619 9.49103 9.14447 10.2417 9.14447C10.3188 9.14447 10.3952 9.15097 10.4683 9.16397C10.6292 9.19077 10.7819 9.2452 10.9224 9.32725C10.9427 9.33944 10.9566 9.35895 10.9598 9.3817L11.2734 11.3582C11.2774 11.3818 11.2701 11.4045 11.2547 11.4216C11.0817 11.6133 10.8607 11.7514 10.6145 11.8204L10.4959 11.8537L10.5406 11.9683C10.9452 12.9984 11.7689 13.8213 12.7998 14.2275L12.9144 14.273L12.9477 14.1544C13.0167 13.9083 13.1548 13.6873 13.3466 13.5142C13.3604 13.5012 13.3791 13.4947 13.3977 13.4947C13.4018 13.4947 13.4059 13.4947 13.4107 13.4956L15.3872 13.8091C15.4108 13.8132 15.4303 13.8262 15.4425 13.8465C15.5237 13.9871 15.5782 14.1406 15.6058 14.3014C15.6188 14.3729 15.6245 14.4485 15.6245 14.5273C15.6245 15.2787 15.0127 15.8904 14.2605 15.8913Z" fill="black"/>
<path d="M19.5231 11.8489C19.363 10.0405 18.5344 8.36298 17.1899 7.12573C15.8373 5.88117 14.0826 5.19553 12.2474 5.19553C8.21969 5.19553 4.94258 8.47264 4.94258 12.5004C4.94258 13.8522 5.31545 15.1691 6.0214 16.3161L4.44702 19.8012L9.48781 19.2642C10.3644 19.6233 11.2921 19.8053 12.2466 19.8053C12.4977 19.8053 12.7552 19.7923 13.0135 19.7655C13.241 19.7411 13.4709 19.7054 13.6967 19.6599C17.0697 18.9783 19.532 15.9847 19.5515 12.5394V12.5004C19.5515 12.2811 19.5418 12.0617 19.5223 11.8497L19.5231 11.8489ZM9.68197 17.7345L6.89309 18.0319L7.72578 16.187L7.55923 15.9636C7.54705 15.9473 7.53487 15.9311 7.52106 15.9124C6.79804 14.914 6.41622 13.7344 6.41622 12.5012C6.41622 9.28583 9.03207 6.66998 12.2474 6.66998C15.2597 6.66998 17.813 9.02019 18.0592 12.0203C18.0722 12.1811 18.0795 12.3428 18.0795 12.502C18.0795 12.5475 18.0787 12.5922 18.0779 12.6401C18.0161 15.3299 16.1371 17.6143 13.5083 18.196C13.3076 18.2407 13.1021 18.2748 12.8973 18.2967C12.6845 18.3211 12.466 18.3333 12.2491 18.3333C11.4765 18.3333 10.7259 18.1838 10.0167 17.8881C9.93787 17.8564 9.86069 17.8223 9.78839 17.7873L9.68278 17.7362L9.68197 17.7345Z" fill="black"/>
</svg>
